<svg width="168" height="32" viewBox="0 0 168 32" fill="none" xmlns="http://www.w3.org/2000/svg">
<path d="M23.9105 19.9361V22.3361C23.9114 22.5589 23.8658 22.7794 23.7765 22.9836C23.6872 23.1877 23.5563 23.3709 23.3922 23.5216C23.228 23.6722 23.0342 23.7869 22.8231 23.8582C22.612 23.9296 22.3884 23.9561 22.1665 23.9361C19.7048 23.6686 17.3401 22.8274 15.2625 21.4801C13.3296 20.2518 11.6908 18.613 10.4625 16.6801C9.11048 14.593 8.26909 12.2169 8.00649 9.74408C7.9865 9.52285 8.01279 9.29989 8.08369 9.08938C8.15459 8.87887 8.26855 8.68543 8.41831 8.52137C8.56806 8.35732 8.75034 8.22625 8.95353 8.1365C9.15671 8.04675 9.37637 8.00029 9.59849 8.00008H11.9985C12.3867 7.99626 12.7631 8.13374 13.0575 8.3869C13.3519 8.64007 13.5442 8.99163 13.5985 9.37608C13.6998 10.1441 13.8877 10.8983 14.1585 11.6241C14.2661 11.9104 14.2894 12.2216 14.2256 12.5208C14.1618 12.82 14.0136 13.0946 13.7985 13.3121L12.7825 14.3281C13.9213 16.3309 15.5797 17.9892 17.5825 19.1281L18.5985 18.1121C18.816 17.897 19.0906 17.7488 19.3898 17.685C19.689 17.6211 20.0002 17.6444 20.2865 17.7521C21.0123 18.0229 21.7664 18.2108 22.5345 18.3121C22.9231 18.3669 23.278 18.5626 23.5317 18.8621C23.7854 19.1615 23.9202 19.5437 23.9105 19.9361Z" fill="#AE8646"/>
<path d="M32.976 18.764C32.976 18.3907 33.024 18.06 33.12 17.772C33.216 17.4733 33.3493 17.2067 33.52 16.972C33.7013 16.7267 33.9093 16.508 34.144 16.316C34.3893 16.124 34.6507 15.948 34.928 15.788C34.4053 15.4573 33.9947 15.0787 33.696 14.652C33.3973 14.2147 33.248 13.676 33.248 13.036C33.248 12.62 33.3227 12.2307 33.472 11.868C33.632 11.5053 33.856 11.1907 34.144 10.924C34.4427 10.6573 34.8 10.4493 35.216 10.3C35.632 10.1507 36.1013 10.076 36.624 10.076C37.104 10.076 37.5413 10.14 37.936 10.268C38.3307 10.396 38.6667 10.5773 38.944 10.812C39.232 11.0467 39.4507 11.3347 39.6 11.676C39.76 12.0067 39.84 12.3747 39.84 12.78C39.84 13.4093 39.696 13.9427 39.408 14.38C39.1307 14.8173 38.72 15.2173 38.176 15.58C38.816 15.9533 39.296 16.364 39.616 16.812C39.9467 17.26 40.112 17.836 40.112 18.54C40.112 19.02 40.0213 19.4573 39.84 19.852C39.6693 20.236 39.424 20.5667 39.104 20.844C38.784 21.1213 38.4 21.34 37.952 21.5C37.504 21.6493 37.0133 21.724 36.48 21.724C35.9467 21.724 35.4613 21.6493 35.024 21.5C34.5973 21.3613 34.2293 21.164 33.92 20.908C33.6213 20.652 33.3867 20.3427 33.216 19.98C33.056 19.6173 32.976 19.212 32.976 18.764ZM38.128 18.556C38.128 18.3107 38.0693 18.0867 37.952 17.884C37.8347 17.6813 37.68 17.5 37.488 17.34C37.3067 17.1693 37.0987 17.0147 36.864 16.876C36.64 16.7373 36.4107 16.604 36.176 16.476C35.6747 16.764 35.328 17.0787 35.136 17.42C34.9547 17.7507 34.864 18.0813 34.864 18.412C34.864 18.8387 35.008 19.2067 35.296 19.516C35.5947 19.8147 36.0053 19.964 36.528 19.964C37.008 19.964 37.392 19.8467 37.68 19.612C37.9787 19.3773 38.128 19.0253 38.128 18.556ZM35.232 13.068C35.232 13.324 35.28 13.548 35.376 13.74C35.472 13.932 35.6 14.1027 35.76 14.252C35.9307 14.3907 36.1173 14.524 36.32 14.652C36.5333 14.7693 36.752 14.8813 36.976 14.988C37.616 14.444 37.936 13.8467 37.936 13.196C37.936 12.748 37.8027 12.412 37.536 12.188C37.28 11.9533 36.9653 11.836 36.592 11.836C36.1227 11.836 35.776 11.9587 35.552 12.204C35.3387 12.4493 35.232 12.7373 35.232 13.068ZM41.9421 15.98H45.9581V17.82H41.9421V15.98ZM47.4838 15.884C47.4838 13.9213 47.8198 12.4653 48.4918 11.516C49.1638 10.556 50.1291 10.076 51.3878 10.076C52.7318 10.076 53.7184 10.5507 54.3478 11.5C54.9771 12.4387 55.2917 13.9 55.2917 15.884C55.2917 17.8573 54.9504 19.324 54.2678 20.284C53.5958 21.244 52.6304 21.724 51.3718 21.724C50.0384 21.724 49.0571 21.2227 48.4278 20.22C47.7984 19.2067 47.4838 17.7613 47.4838 15.884ZM49.5638 15.884C49.5638 17.1853 49.7024 18.1933 49.9798 18.908C50.2678 19.612 50.7371 19.964 51.3878 19.964C52.0171 19.964 52.4758 19.6387 52.7638 18.988C53.0624 18.3373 53.2118 17.3027 53.2118 15.884C53.2118 14.5933 53.0731 13.596 52.7958 12.892C52.5184 12.188 52.0438 11.836 51.3718 11.836C50.7318 11.836 50.2678 12.1667 49.9798 12.828C49.7024 13.4893 49.5638 14.508 49.5638 15.884ZM63.5219 13.036C63.5219 13.58 63.4205 14.1293 63.2179 14.684C63.0259 15.2387 62.7752 15.7827 62.4659 16.316C62.1672 16.8493 61.8312 17.3667 61.4579 17.868C61.0952 18.3587 60.7379 18.812 60.3859 19.228L59.5379 19.884V19.964L60.6899 19.74H63.7619V21.5H57.0259V20.428C57.2819 20.1613 57.5699 19.852 57.8899 19.5C58.2099 19.1373 58.5299 18.7587 58.8499 18.364C59.1805 17.9587 59.5005 17.5427 59.8099 17.116C60.1192 16.6893 60.3965 16.2627 60.6419 15.836C60.8872 15.3987 61.0792 14.9773 61.2179 14.572C61.3672 14.1667 61.4419 13.7827 61.4419 13.42C61.4419 12.9827 61.3139 12.6253 61.0579 12.348C60.8125 12.06 60.4179 11.916 59.8739 11.916C59.5325 11.916 59.1805 11.9907 58.8179 12.14C58.4659 12.2787 58.1672 12.46 57.9219 12.684L57.0899 11.212C57.5059 10.8707 57.9752 10.5987 58.4979 10.396C59.0312 10.1827 59.6552 10.076 60.3699 10.076C60.8285 10.076 61.2499 10.14 61.6339 10.268C62.0179 10.396 62.3485 10.5827 62.6259 10.828C62.9032 11.0733 63.1219 11.3827 63.2819 11.756C63.4419 12.1187 63.5219 12.5453 63.5219 13.036ZM65.72 13.804C65.72 13.26 65.8 12.7587 65.96 12.3C66.1307 11.8413 66.3707 11.452 66.68 11.132C67 10.8013 67.384 10.5453 67.832 10.364C68.2907 10.172 68.8133 10.076 69.4 10.076C70.6053 10.076 71.5493 10.4387 72.232 11.164C72.9253 11.8787 73.272 12.924 73.272 14.3C73.272 15.5373 73.112 16.6093 72.792 17.516C72.4827 18.412 72.0613 19.164 71.528 19.772C71.0053 20.3693 70.3973 20.828 69.704 21.148C69.0107 21.468 68.28 21.66 67.512 21.724L67.064 20.092C67.6507 20.0173 68.1733 19.8733 68.632 19.66C69.0907 19.4467 69.4853 19.1853 69.816 18.876C70.1467 18.556 70.4133 18.1987 70.616 17.804C70.8293 17.3987 70.9787 16.9667 71.064 16.508C70.808 16.7853 70.5307 16.9773 70.232 17.084C69.944 17.1907 69.5547 17.244 69.064 17.244C68.6587 17.244 68.2533 17.1747 67.848 17.036C67.4533 16.8973 67.096 16.6893 66.776 16.412C66.4667 16.124 66.2107 15.7667 66.008 15.34C65.816 14.9027 65.72 14.3907 65.72 13.804ZM67.736 13.692C67.736 14.3 67.9067 14.7587 68.248 15.068C68.5893 15.3773 69.016 15.532 69.528 15.532C69.9653 15.532 70.3227 15.4627 70.6 15.324C70.8773 15.1853 71.0907 15.0147 71.24 14.812C71.272 14.588 71.288 14.3747 71.288 14.172C71.288 13.8733 71.2507 13.58 71.176 13.292C71.1013 13.004 70.984 12.748 70.824 12.524C70.6747 12.3 70.4773 12.124 70.232 11.996C69.9973 11.8573 69.7147 11.788 69.384 11.788C68.8613 11.788 68.456 11.9587 68.168 12.3C67.88 12.6307 67.736 13.0947 67.736 13.692ZM75.7421 21.5L79.4061 12.876L80.1101 12.092L79.1501 12.252H75.0381V10.3H82.2541V10.908L77.7741 21.5H75.7421ZM82.989 15.98H87.005V17.82H82.989V15.98ZM89.5066 19.74H91.7306V13.42L91.9706 12.332L91.2026 13.276L89.7786 14.252L88.8986 13.052L92.5466 10.108H93.7146V19.74H95.8906V21.5H89.5066V19.74ZM98.6328 21.5L102.297 12.876L103.001 12.092L102.041 12.252H97.9288V10.3H105.145V10.908L100.665 21.5H98.6328ZM107.711 21.5L111.375 12.876L112.079 12.092L111.119 12.252H107.007V10.3H114.223V10.908L109.743 21.5H107.711ZM114.958 15.98H118.974V17.82H114.958V15.98ZM120.835 18.764C120.835 18.3907 120.883 18.06 120.979 17.772C121.075 17.4733 121.209 17.2067 121.379 16.972C121.561 16.7267 121.769 16.508 122.003 16.316C122.249 16.124 122.51 15.948 122.787 15.788C122.265 15.4573 121.854 15.0787 121.555 14.652C121.257 14.2147 121.107 13.676 121.107 13.036C121.107 12.62 121.182 12.2307 121.331 11.868C121.491 11.5053 121.715 11.1907 122.003 10.924C122.302 10.6573 122.659 10.4493 123.075 10.3C123.491 10.1507 123.961 10.076 124.483 10.076C124.963 10.076 125.401 10.14 125.795 10.268C126.19 10.396 126.526 10.5773 126.803 10.812C127.091 11.0467 127.31 11.3347 127.459 11.676C127.619 12.0067 127.699 12.3747 127.699 12.78C127.699 13.4093 127.555 13.9427 127.267 14.38C126.99 14.8173 126.579 15.2173 126.035 15.58C126.675 15.9533 127.155 16.364 127.475 16.812C127.806 17.26 127.971 17.836 127.971 18.54C127.971 19.02 127.881 19.4573 127.699 19.852C127.529 20.236 127.283 20.5667 126.963 20.844C126.643 21.1213 126.259 21.34 125.811 21.5C125.363 21.6493 124.873 21.724 124.339 21.724C123.806 21.724 123.321 21.6493 122.883 21.5C122.457 21.3613 122.089 21.164 121.779 20.908C121.481 20.652 121.246 20.3427 121.075 19.98C120.915 19.6173 120.835 19.212 120.835 18.764ZM125.987 18.556C125.987 18.3107 125.929 18.0867 125.811 17.884C125.694 17.6813 125.539 17.5 125.347 17.34C125.166 17.1693 124.958 17.0147 124.723 16.876C124.499 16.7373 124.27 16.604 124.035 16.476C123.534 16.764 123.187 17.0787 122.995 17.42C122.814 17.7507 122.723 18.0813 122.723 18.412C122.723 18.8387 122.867 19.2067 123.155 19.516C123.454 19.8147 123.865 19.964 124.387 19.964C124.867 19.964 125.251 19.8467 125.539 19.612C125.838 19.3773 125.987 19.0253 125.987 18.556ZM123.091 13.068C123.091 13.324 123.139 13.548 123.235 13.74C123.331 13.932 123.459 14.1027 123.619 14.252C123.79 14.3907 123.977 14.524 124.179 14.652C124.393 14.7693 124.611 14.8813 124.835 14.988C125.475 14.444 125.795 13.8467 125.795 13.196C125.795 12.748 125.662 12.412 125.395 12.188C125.139 11.9533 124.825 11.836 124.451 11.836C123.982 11.836 123.635 11.9587 123.411 12.204C123.198 12.4493 123.091 12.7373 123.091 13.068ZM129.914 18.764C129.914 18.3907 129.962 18.06 130.058 17.772C130.154 17.4733 130.287 17.2067 130.458 16.972C130.639 16.7267 130.847 16.508 131.082 16.316C131.327 16.124 131.588 15.948 131.866 15.788C131.343 15.4573 130.932 15.0787 130.634 14.652C130.335 14.2147 130.186 13.676 130.186 13.036C130.186 12.62 130.26 12.2307 130.41 11.868C130.57 11.5053 130.794 11.1907 131.082 10.924C131.38 10.6573 131.738 10.4493 132.154 10.3C132.57 10.1507 133.039 10.076 133.562 10.076C134.042 10.076 134.479 10.14 134.874 10.268C135.268 10.396 135.604 10.5773 135.882 10.812C136.17 11.0467 136.388 11.3347 136.538 11.676C136.698 12.0067 136.778 12.3747 136.778 12.78C136.778 13.4093 136.634 13.9427 136.346 14.38C136.068 14.8173 135.658 15.2173 135.114 15.58C135.754 15.9533 136.234 16.364 136.554 16.812C136.884 17.26 137.05 17.836 137.05 18.54C137.05 19.02 136.959 19.4573 136.778 19.852C136.607 20.236 136.362 20.5667 136.042 20.844C135.722 21.1213 135.338 21.34 134.89 21.5C134.442 21.6493 133.951 21.724 133.418 21.724C132.884 21.724 132.399 21.6493 131.962 21.5C131.535 21.3613 131.167 21.164 130.858 20.908C130.559 20.652 130.324 20.3427 130.154 19.98C129.994 19.6173 129.914 19.212 129.914 18.764ZM135.066 18.556C135.066 18.3107 135.007 18.0867 134.89 17.884C134.772 17.6813 134.618 17.5 134.426 17.34C134.244 17.1693 134.036 17.0147 133.802 16.876C133.578 16.7373 133.348 16.604 133.114 16.476C132.612 16.764 132.266 17.0787 132.074 17.42C131.892 17.7507 131.802 18.0813 131.802 18.412C131.802 18.8387 131.946 19.2067 132.234 19.516C132.532 19.8147 132.943 19.964 133.466 19.964C133.946 19.964 134.33 19.8467 134.618 19.612C134.916 19.3773 135.066 19.0253 135.066 18.556ZM132.17 13.068C132.17 13.324 132.218 13.548 132.314 13.74C132.41 13.932 132.538 14.1027 132.698 14.252C132.868 14.3907 133.055 14.524 133.258 14.652C133.471 14.7693 133.69 14.8813 133.914 14.988C134.554 14.444 134.874 13.8467 134.874 13.196C134.874 12.748 134.74 12.412 134.474 12.188C134.218 11.9533 133.903 11.836 133.53 11.836C133.06 11.836 132.714 11.9587 132.49 12.204C132.276 12.4493 132.17 12.7373 132.17 13.068ZM138.992 18.764C138.992 18.3907 139.04 18.06 139.136 17.772C139.232 17.4733 139.365 17.2067 139.536 16.972C139.717 16.7267 139.925 16.508 140.16 16.316C140.405 16.124 140.666 15.948 140.944 15.788C140.421 15.4573 140.01 15.0787 139.712 14.652C139.413 14.2147 139.264 13.676 139.264 13.036C139.264 12.62 139.338 12.2307 139.488 11.868C139.648 11.5053 139.872 11.1907 140.16 10.924C140.458 10.6573 140.816 10.4493 141.232 10.3C141.648 10.1507 142.117 10.076 142.64 10.076C143.12 10.076 143.557 10.14 143.952 10.268C144.346 10.396 144.682 10.5773 144.96 10.812C145.248 11.0467 145.466 11.3347 145.616 11.676C145.776 12.0067 145.856 12.3747 145.856 12.78C145.856 13.4093 145.712 13.9427 145.424 14.38C145.146 14.8173 144.736 15.2173 144.192 15.58C144.832 15.9533 145.312 16.364 145.632 16.812C145.962 17.26 146.128 17.836 146.128 18.54C146.128 19.02 146.037 19.4573 145.856 19.852C145.685 20.236 145.44 20.5667 145.12 20.844C144.8 21.1213 144.416 21.34 143.968 21.5C143.52 21.6493 143.029 21.724 142.496 21.724C141.962 21.724 141.477 21.6493 141.04 21.5C140.613 21.3613 140.245 21.164 139.936 20.908C139.637 20.652 139.402 20.3427 139.232 19.98C139.072 19.6173 138.992 19.212 138.992 18.764ZM144.144 18.556C144.144 18.3107 144.085 18.0867 143.968 17.884C143.85 17.6813 143.696 17.5 143.504 17.34C143.322 17.1693 143.114 17.0147 142.88 16.876C142.656 16.7373 142.426 16.604 142.192 16.476C141.69 16.764 141.344 17.0787 141.152 17.42C140.97 17.7507 140.88 18.0813 140.88 18.412C140.88 18.8387 141.024 19.2067 141.312 19.516C141.61 19.8147 142.021 19.964 142.544 19.964C143.024 19.964 143.408 19.8467 143.696 19.612C143.994 19.3773 144.144 19.0253 144.144 18.556ZM141.248 13.068C141.248 13.324 141.296 13.548 141.392 13.74C141.488 13.932 141.616 14.1027 141.776 14.252C141.946 14.3907 142.133 14.524 142.336 14.652C142.549 14.7693 142.768 14.8813 142.992 14.988C143.632 14.444 143.952 13.8467 143.952 13.196C143.952 12.748 143.818 12.412 143.552 12.188C143.296 11.9533 142.981 11.836 142.608 11.836C142.138 11.836 141.792 11.9587 141.568 12.204C141.354 12.4493 141.248 12.7373 141.248 13.068Z" fill="#333333"/>
<path d="M155 14.5L158 17.5L161 14.5" stroke="#333333" stroke-linecap="round" stroke-linejoin="round"/>
</svg>
