<svg width="34" height="34" viewBox="0 0 34 34" fill="none" xmlns="http://www.w3.org/2000/svg">
<path d="M16.3345 9.09403L17.0102 10.4973L17.686 9.09403C18.7351 6.91543 20.9545 5.75098 23.6278 5.75098C27.2743 5.75098 30.2397 8.8501 30.2499 12.6585C30.2544 14.3553 29.4742 16.2464 28.1968 18.1809C26.9279 20.1023 25.2208 21.9885 23.4917 23.6582C21.7658 25.3249 20.0362 26.7585 18.7366 27.7763C18.0874 28.2847 17.5469 28.6883 17.1696 28.964C17.1127 29.0056 17.0595 29.0443 17.0103 29.08C16.961 29.0443 16.9078 29.0056 16.8509 28.964C16.4736 28.6881 15.9331 28.2845 15.2837 27.7757C13.9838 26.7573 12.2536 25.3225 10.5264 23.6532C8.79612 21.981 7.08701 20.0909 5.81523 18.1635C4.53506 16.2234 3.75016 14.3235 3.75016 12.6148C3.75016 8.81955 6.74708 5.75098 10.4049 5.75098C13.0767 5.75098 15.2849 6.91434 16.3345 9.09403Z" stroke="#E12317" stroke-width="1.5"/>
</svg>
